<svg width="143" height="83" viewBox="0 0 143 83" fill="none" xmlns="http://www.w3.org/2000/svg">
<path d="M3.32535 52.2759C3.63905 51.4277 4.37101 50.9862 5.52125 50.9514C6.67148 50.9165 7.44411 51.3057 7.83914 52.119L7.874 58.7242C9.50059 57.725 11.5513 57.481 14.026 57.9922C16.5007 58.5034 18.2609 60.1126 19.3066 62.8197C20.3523 65.5268 20.1838 68.2746 18.8012 71.063C17.4302 73.8399 15.4376 75.3561 12.8235 75.6117C10.2209 75.8673 8.54787 75.4955 7.80429 74.4963C7.38602 75.3561 6.57853 75.7453 5.38182 75.664C4.19674 75.5943 3.49963 75.1644 3.29049 74.3743L3.32535 52.2759ZM12.9978 62.4363C11.5106 61.9018 9.86657 62.14 8.0657 63.1508V70.0174C9.40183 71.2373 10.8193 71.644 12.3181 71.2373C13.8285 70.8307 14.7928 70.0755 15.2111 68.9717C15.641 67.8563 15.7513 66.6189 15.5422 65.2596C15.3331 63.9002 14.4849 62.9591 12.9978 62.4363Z" fill="black"/>
<path d="M35.5319 81.2408C34.4397 82.3097 32.5866 82.85 29.9724 82.8616C27.3582 82.8733 25.4296 82.3911 24.1864 81.4151C22.5714 80.6483 22.0428 79.5794 22.6005 78.2084C23.1582 76.849 24.2154 76.5237 25.7723 77.2325C26.8412 78.1736 28.2761 78.6093 30.077 78.5395C31.8778 78.4815 32.6795 77.6565 32.482 76.0648V74.5137C30.7392 75.42 28.9965 75.786 27.2537 75.6117C25.5225 75.4374 24.1457 74.7461 23.1233 73.5378C22.1125 72.3294 21.4909 70.7493 21.2585 68.7974C21.0262 66.8455 21.2876 65.126 22.0428 63.6388C22.798 62.14 23.1582 60.8445 23.1233 59.7524C23.1001 58.6603 23.7507 58.1026 25.0752 58.0793C26.3997 58.0561 27.1491 58.515 27.3234 59.4561C27.5093 60.3856 27.1956 61.8786 26.3823 63.9351C25.5806 65.9799 25.4702 67.6704 26.0512 69.0066C26.6321 70.3427 27.8056 71.0166 29.5716 71.0282C31.3492 71.0398 32.3135 70.4298 32.4646 69.1983L32.482 59.6304C32.482 58.5615 33.2605 58.0038 34.8173 57.9573C36.3742 57.9109 37.1759 58.5615 37.2224 59.9093L37.2746 77.4416C37.2049 78.9055 36.624 80.1719 35.5319 81.2408Z" fill="black"/>
<path d="M64.5665 50.934C65.8678 50.9572 66.5823 51.4626 66.7102 52.4502L66.745 74.3743C66.5359 75.1644 65.833 75.5943 64.6362 75.664C63.4512 75.7453 62.6495 75.3561 62.2312 74.4963C61.4876 75.4955 59.71 75.8673 56.8983 75.6117C54.0983 75.3561 52.1347 73.9677 51.0077 71.4464C49.8807 68.9136 49.811 66.1658 50.7986 63.2031C51.7978 60.2404 53.5348 58.5034 56.0095 57.9922C58.4842 57.481 60.5349 57.725 62.1615 58.7242L62.1964 52.4676C62.4752 51.4219 63.2653 50.9107 64.5665 50.934ZM62.0744 62.9765C60.2735 61.9657 58.6295 61.7275 57.1423 62.262C55.6551 62.7848 54.807 63.7259 54.5979 65.0853C54.3887 66.4447 54.4933 67.682 54.9116 68.7974C55.3414 69.9012 56.3058 70.6564 57.8046 71.063C59.315 71.4697 60.7382 71.063 62.0744 69.8431V62.9765Z" fill="black"/>
<path d="M81.6109 74.8449C79.7403 75.8324 77.4457 76.0648 74.7269 75.542C72.0082 75.0191 70.0911 73.5726 68.9758 71.2025C67.872 68.8207 67.7907 66.2413 68.7318 63.4645C69.6729 60.6761 71.5318 58.9101 74.3087 58.1665C77.0855 57.4113 79.4266 57.4577 81.3321 58.3059C83.2375 59.1424 83.9462 60.2462 83.4582 61.6172C82.9703 62.9765 82.0582 63.36 80.7221 62.7674C79.0955 61.8031 77.434 61.5068 75.7377 61.8786C74.0531 62.2504 73.1061 63.116 72.897 64.4753L79.0142 64.4579C80.0831 64.7251 80.6117 65.3874 80.6001 66.4447C80.5885 67.4903 80.0424 68.2165 78.9619 68.6231H72.8447C73.2049 69.9244 74.1809 70.8307 75.7726 71.3419C77.3759 71.8415 79.02 71.4813 80.7047 70.2614C82.5055 69.5759 83.5744 69.9244 83.9114 71.307C84.2483 72.678 83.4815 73.8573 81.6109 74.8449Z" fill="black"/>
<path d="M88.3554 58.4627C90.319 57.4636 92.5439 57.2835 95.0303 57.9225C97.5283 58.5499 98.6785 59.4329 98.481 60.5715C98.2835 61.6985 97.7432 62.2969 96.8602 62.3666C95.9772 62.4363 94.9664 62.2446 93.8278 61.7915C92.6892 61.3383 91.7364 61.2628 90.9696 61.5649C90.2144 61.867 90.0053 62.355 90.3422 63.0288C90.6791 63.6911 91.446 64.0919 92.6427 64.2313C93.8394 64.3591 94.9896 64.5915 96.0934 64.9285C97.1971 65.2538 98.2021 65.9218 99.1084 66.9326C100.026 67.9318 100.206 69.3783 99.6486 71.2722C99.1026 73.166 97.8768 74.4847 95.9714 75.2283C94.0659 75.9718 91.7422 75.9312 89.0003 75.1063C86.2699 74.2814 84.8292 73.288 84.6782 72.1261C84.5271 70.9643 84.9396 70.2091 85.9156 69.8605C86.8915 69.5003 88.0301 69.7269 89.3314 70.5402C90.6443 71.3419 91.934 71.6846 93.2004 71.5684C94.4784 71.4523 95.1523 70.9701 95.222 70.1219C95.2917 69.2738 94.4436 68.7393 92.6775 68.5186C90.9231 68.2862 89.2501 67.7517 87.6583 66.9152C86.0666 66.0787 85.294 64.7135 85.3404 62.8197C85.3985 60.9143 86.4035 59.4619 88.3554 58.4627Z" fill="black"/>
<path d="M101.374 59.735C101.513 58.3872 102.303 57.7075 103.744 57.6959C105.185 57.6727 105.998 58.3466 106.184 59.7175V73.7121C105.928 75.0714 105.121 75.7511 103.762 75.7511C102.402 75.7511 101.606 75.0366 101.374 73.6075V59.735ZM101.304 53.7747C101.304 51.8576 102.164 50.9281 103.884 50.9862C105.615 51.0443 106.469 51.997 106.445 53.8444C106.434 55.6917 105.574 56.6212 103.866 56.6328C102.17 56.6328 101.316 55.6801 101.304 53.7747Z" fill="black"/>
<path d="M117.059 82.8093C114.631 82.7977 112.545 82.3097 110.802 81.3454C109.861 80.3695 109.646 79.3761 110.158 78.3653C110.669 77.3661 111.651 77.1047 113.103 77.581C115.264 78.4175 116.902 78.7196 118.018 78.4873C119.145 78.2549 119.795 77.7204 119.969 76.8839L119.987 75.0714C118.36 76.0706 116.31 76.3146 113.835 75.8034C111.36 75.2922 109.6 73.683 108.554 70.9759C107.509 68.2688 107.671 65.5268 109.042 62.75C110.425 59.9615 112.417 58.4395 115.02 58.1839C117.634 57.9283 119.313 58.3001 120.057 59.2993C120.475 58.4395 121.277 58.0503 122.462 58.1316C123.658 58.2013 124.361 58.6312 124.57 59.4213L124.64 76.2216C124.594 78.4756 123.926 80.1371 122.636 81.206C121.346 82.2865 119.487 82.821 117.059 82.8093ZM114.968 71.551C116.455 72.0738 118.099 71.8298 119.9 70.819V63.9525C118.564 62.7326 117.14 62.3259 115.63 62.7326C114.131 63.1392 113.167 63.9002 112.737 65.0156C112.319 66.1194 112.214 67.3509 112.423 68.7103C112.632 70.0696 113.48 71.0166 114.968 71.551Z" fill="black"/>
<path d="M126.4 59.979C126.644 58.9217 127.463 58.3872 128.858 58.3756C130.263 58.3524 131.042 58.8287 131.193 59.8047C132.936 58.7823 134.731 58.3001 136.578 58.3582C138.437 58.4163 139.872 58.9914 140.883 60.0835C141.905 61.1757 142.533 62.6977 142.765 64.6496C142.997 66.6015 142.567 68.9136 141.475 71.5859C140.383 74.2581 139.918 76.4482 140.081 78.1561C140.244 79.8757 139.628 80.7877 138.234 80.8923C136.851 80.9969 135.991 80.1371 135.654 78.313C135.329 76.5005 135.8 74.1129 137.066 71.1502C138.344 68.1758 138.669 65.9799 138.042 64.5625C137.415 63.145 136.154 62.4305 134.26 62.4189C132.378 62.4072 131.361 63.0172 131.21 64.2488L131.193 73.9909C131.193 75.0598 130.414 75.6175 128.858 75.664C127.301 75.7104 126.499 75.0598 126.453 73.7121L126.4 59.979Z" fill="black"/>
<path d="M3.22009 8.77263C1.13576 8.79287 0.0632382 7.44716 0.00252953 4.7355C-0.0581791 2.02385 0.973868 0.657905 3.09867 0.637669L11.6889 0.698378C21.0381 -0.455087 26.9572 0.850149 29.4462 4.61409C31.9555 8.37802 32.4918 12.1723 31.055 15.997C29.6182 19.8216 27.6756 22.169 25.227 23.0392C27.372 23.4439 29.1326 25.4372 30.5086 29.019C34.3737 37.5991 36.7211 42.557 37.5508 43.8926C38.4008 45.2282 39.5239 46.2906 40.9202 47.0798C42.3367 47.8892 42.964 49.0022 42.8021 50.4188C42.6605 51.8555 42.104 52.8977 41.1326 53.5453C40.1815 54.1928 39.0078 54.4053 37.6115 54.1827C36.2355 53.9601 34.91 53.181 33.6351 51.8454C32.3805 50.5098 30.5795 47.0798 28.2321 41.5553C25.8847 36.0308 24.0128 32.1961 22.6165 30.051C21.2202 27.8857 18.3365 26.8537 13.9655 26.9549V40.1287C13.581 42.132 12.1341 43.1236 9.62485 43.1034C7.1358 43.1034 5.8508 42.0511 5.76985 39.9465V8.74228L3.22009 8.77263ZM23.77 13.6597C23.9319 9.5922 20.5625 7.94294 13.662 8.71192L13.6923 18.6378C20.2489 19.3663 23.6081 17.7069 23.77 13.6597Z" fill="black"/>
<path d="M71.4263 42.7088C70.7382 43.2956 69.3217 43.5385 67.1767 43.4373C65.0519 43.3563 63.1193 41.5755 61.379 38.0949C57.8579 41.4946 54.1243 43.1438 50.1782 43.0427C46.2524 42.9415 42.9438 41.5351 40.2524 38.8234C37.5812 36.0915 36.276 32.8942 36.3367 29.2314C36.3974 25.5485 36.8527 22.4523 37.7026 19.943C38.5728 17.4135 39.2102 14.9953 39.6149 12.6883C40.0197 10.3612 39.8982 7.95306 39.2507 5.46401C38.6031 2.97495 39.2304 1.34594 41.1326 0.57696C43.0348 -0.192016 44.593 0.0811731 45.8072 1.39653C47.0416 2.71188 47.7701 4.86704 47.9927 7.862C48.2153 10.8367 47.7195 14.2465 46.5054 18.0914C45.2912 21.9161 45.0686 25.68 45.8376 29.3832C46.6268 33.0662 49.0349 34.8774 53.0619 34.8166C57.1091 34.7357 59.7904 32.6109 61.1058 28.4422L61.0754 3.97665C61.0754 1.30546 62.5527 -0.020008 65.5072 0.000228228C68.4617 0.0204644 69.9895 1.33582 70.0907 3.94629V33.8453C70.0097 35.3225 70.4448 36.3951 71.3959 37.0629C72.3673 37.7307 72.7821 38.6919 72.6404 39.9465C72.519 41.1809 72.1143 42.1017 71.4263 42.7088Z" fill="black"/>
<path d="M73.976 4.18913C73.9356 1.37629 76.202 0.0811731 80.7754 0.303772L90.5798 0.243063C96.1043 0.324008 100.485 2.15539 103.723 5.7372C106.961 9.29877 108.833 13.2853 109.339 17.6968C109.845 22.0881 109.622 26.0746 108.671 29.6564C107.72 33.2382 105.868 36.385 103.116 39.0966C100.384 41.8083 96.3876 43.0831 91.1262 42.9212L79.6523 42.982C75.9693 43.0831 74.1379 41.8083 74.1582 39.1573C74.1986 36.4861 75.8074 35.1303 78.9845 35.0898L79.0452 8.83334C75.7265 8.52979 74.0367 6.98172 73.976 4.18913ZM100.597 15.997C99.0386 11.3831 96.3573 9.01546 92.5529 8.89405L87.2409 8.86369L87.2712 34.8773H93.676C96.9745 34.7559 99.3421 32.7323 100.779 28.8065C102.236 24.8604 102.175 20.5906 100.597 15.997Z" fill="black"/>
<path d="M113.922 7.862C116.189 3.41003 119.659 0.951331 124.334 0.485897C129.029 0.000228226 132.782 0.516252 135.595 2.03397C138.428 3.55168 139.369 5.48424 138.418 7.83165C137.467 10.1588 135.646 10.7153 132.954 9.50113C130.283 8.28696 127.521 7.81141 124.668 8.07448C121.814 8.31731 120.398 9.80468 120.418 12.5366C120.459 15.2482 121.784 16.6243 124.395 16.6648C127.005 16.685 129.393 16.7255 131.558 16.7862C133.744 16.8266 134.867 17.8486 134.928 19.852C135.008 21.8553 134.503 23.1505 133.41 23.7373C132.317 24.3039 130.162 24.4759 126.944 24.2533C123.727 24.0307 121.592 24.5872 120.54 25.9228C119.487 27.2382 119.214 28.9077 119.72 30.9313C120.226 32.9549 121.865 34.1185 124.637 34.422C127.43 34.7053 129.737 34.594 131.558 34.0881C133.379 33.562 135.039 32.702 136.536 31.508C138.054 30.3141 139.541 30.1522 140.998 31.0224C142.476 31.8925 142.992 33.3293 142.546 35.3327C142.101 37.3158 140.654 39.0258 138.206 40.4625C135.777 41.8791 132.479 42.6683 128.31 42.8302C124.142 42.9718 120.519 42.2737 117.443 40.7357C114.388 39.1978 112.425 36.2534 111.555 31.9026C110.685 27.5316 112.303 23.6665 116.411 20.3073C112.486 16.4422 111.656 12.2937 113.922 7.862Z" fill="black"/>
</svg>
